<mxfile host="app.diagrams.net" modified="2023-11-08T11:01:53.518Z" agent="Mozilla/5.0 (X11; Linux x86_64) AppleWebKit/537.36 (KHTML, like Gecko) Chrome/119.0.0.0 Safari/537.36" etag="-WgF-RZ-RLYSJQ991BaU" version="22.0.8" type="device">
  <diagram name="Pàgina-1" id="mhbHxmUa4zc_a_H4eHv1">
    <mxGraphModel dx="954" dy="618" grid="1" gridSize="10" guides="1" tooltips="1" connect="1" arrows="1" fold="1" page="1" pageScale="1" pageWidth="827" pageHeight="1169" math="0" shadow="0">
      <root>
        <mxCell id="0" />
        <mxCell id="1" parent="0" />
        <mxCell id="bIK6wui3ePqaCmGUiWQX-3" value="..." style="rounded=1;whiteSpace=wrap;html=1;fontSize=16;fillColor=#f5f5f5;strokeColor=#666666;fontColor=#333333;" parent="1" vertex="1">
          <mxGeometry x="720" y="640" width="120" height="40" as="geometry" />
        </mxCell>
        <mxCell id="bIK6wui3ePqaCmGUiWQX-7" style="rounded=0;orthogonalLoop=1;jettySize=auto;html=1;fillColor=#d5e8d4;strokeColor=#82b366;" parent="1" source="bIK6wui3ePqaCmGUiWQX-6" target="4geezG6I5giaBuU09YtY-4" edge="1">
          <mxGeometry relative="1" as="geometry">
            <mxPoint x="580" y="610" as="sourcePoint" />
          </mxGeometry>
        </mxCell>
        <mxCell id="bIK6wui3ePqaCmGUiWQX-6" value="main" style="ellipse;whiteSpace=wrap;html=1;fillColor=#d5e8d4;strokeColor=#82b366;fontSize=16;fontStyle=1" parent="1" vertex="1">
          <mxGeometry x="1330" y="570" width="100" height="40" as="geometry" />
        </mxCell>
        <mxCell id="bIK6wui3ePqaCmGUiWQX-11" style="edgeStyle=orthogonalEdgeStyle;rounded=0;orthogonalLoop=1;jettySize=auto;html=1;exitX=0.5;exitY=1;exitDx=0;exitDy=0;fillColor=#f5f5f5;strokeColor=#666666;" parent="1" source="bIK6wui3ePqaCmGUiWQX-8" target="bIK6wui3ePqaCmGUiWQX-6" edge="1">
          <mxGeometry relative="1" as="geometry">
            <mxPoint x="1580" y="1230" as="targetPoint" />
          </mxGeometry>
        </mxCell>
        <mxCell id="bIK6wui3ePqaCmGUiWQX-8" value="HEAD" style="ellipse;whiteSpace=wrap;html=1;fillColor=#f5f5f5;strokeColor=#666666;fontSize=16;fontStyle=1;fontColor=#333333;" parent="1" vertex="1">
          <mxGeometry x="1330" y="500" width="100" height="40" as="geometry" />
        </mxCell>
        <mxCell id="bIK6wui3ePqaCmGUiWQX-15" style="rounded=0;orthogonalLoop=1;jettySize=auto;html=1;fillColor=#e1d5e7;strokeColor=#9673a6;" parent="1" source="bIK6wui3ePqaCmGUiWQX-14" target="4geezG6I5giaBuU09YtY-2" edge="1">
          <mxGeometry relative="1" as="geometry" />
        </mxCell>
        <mxCell id="bIK6wui3ePqaCmGUiWQX-14" value="origin/main" style="ellipse;whiteSpace=wrap;html=1;fillColor=#e1d5e7;strokeColor=#9673a6;fontSize=16;fontStyle=1" parent="1" vertex="1">
          <mxGeometry x="1320" y="810" width="120" height="40" as="geometry" />
        </mxCell>
        <mxCell id="FB9GtuEAJczlA79pJL21-1" value="23bbe2" style="rounded=1;whiteSpace=wrap;html=1;fontSize=16;fillColor=#f5f5f5;strokeColor=#666666;fontColor=#333333;fontStyle=0;labelBorderColor=none;" parent="1" vertex="1">
          <mxGeometry x="1120" y="640" width="120" height="40" as="geometry" />
        </mxCell>
        <mxCell id="FB9GtuEAJczlA79pJL21-2" value="84fe400" style="rounded=1;whiteSpace=wrap;html=1;fontSize=16;fillColor=#f5f5f5;strokeColor=#666666;fontColor=#333333;" parent="1" vertex="1">
          <mxGeometry x="920" y="640" width="120" height="40" as="geometry" />
        </mxCell>
        <mxCell id="FB9GtuEAJczlA79pJL21-3" style="rounded=0;orthogonalLoop=1;jettySize=auto;html=1;fillColor=#f5f5f5;strokeColor=#666666;" parent="1" source="FB9GtuEAJczlA79pJL21-2" target="bIK6wui3ePqaCmGUiWQX-3" edge="1">
          <mxGeometry relative="1" as="geometry">
            <mxPoint x="730" y="670" as="sourcePoint" />
            <mxPoint x="840" y="660" as="targetPoint" />
          </mxGeometry>
        </mxCell>
        <mxCell id="FB9GtuEAJczlA79pJL21-4" style="rounded=0;orthogonalLoop=1;jettySize=auto;html=1;fillColor=#f5f5f5;strokeColor=#666666;exitX=0;exitY=0.5;exitDx=0;exitDy=0;entryX=1;entryY=0.5;entryDx=0;entryDy=0;" parent="1" source="FB9GtuEAJczlA79pJL21-1" target="FB9GtuEAJczlA79pJL21-2" edge="1">
          <mxGeometry relative="1" as="geometry">
            <mxPoint x="930" y="630" as="sourcePoint" />
            <mxPoint x="850" y="653" as="targetPoint" />
          </mxGeometry>
        </mxCell>
        <mxCell id="4geezG6I5giaBuU09YtY-1" value="&lt;i&gt;&lt;font style=&quot;font-size: 15px;&quot;&gt;El nostre entorn de desenvolupament&lt;/font&gt;&lt;/i&gt;" style="text;html=1;strokeColor=none;fillColor=none;align=center;verticalAlign=middle;whiteSpace=wrap;rounded=0;" parent="1" vertex="1">
          <mxGeometry x="880" y="555" width="350" height="30" as="geometry" />
        </mxCell>
        <mxCell id="4geezG6I5giaBuU09YtY-2" value="faed5a5" style="rounded=1;whiteSpace=wrap;html=1;fontSize=16;fillColor=#f5f5f5;strokeColor=#666666;fontColor=#333333;fontStyle=0;labelBorderColor=none;" parent="1" vertex="1">
          <mxGeometry x="1320" y="740" width="120" height="40" as="geometry" />
        </mxCell>
        <mxCell id="4geezG6I5giaBuU09YtY-3" style="rounded=0;orthogonalLoop=1;jettySize=auto;html=1;fillColor=#f5f5f5;strokeColor=#666666;exitX=0;exitY=0.5;exitDx=0;exitDy=0;entryX=1;entryY=1;entryDx=0;entryDy=0;" parent="1" source="4geezG6I5giaBuU09YtY-2" target="FB9GtuEAJczlA79pJL21-1" edge="1">
          <mxGeometry relative="1" as="geometry">
            <mxPoint x="1130" y="670" as="sourcePoint" />
            <mxPoint x="1050" y="670" as="targetPoint" />
          </mxGeometry>
        </mxCell>
        <mxCell id="4geezG6I5giaBuU09YtY-4" value="8ee181d" style="rounded=1;whiteSpace=wrap;html=1;fontSize=16;fillColor=#f5f5f5;strokeColor=#666666;fontColor=#333333;fontStyle=0;labelBorderColor=none;" parent="1" vertex="1">
          <mxGeometry x="1320" y="640" width="120" height="40" as="geometry" />
        </mxCell>
        <mxCell id="4geezG6I5giaBuU09YtY-5" style="rounded=0;orthogonalLoop=1;jettySize=auto;html=1;fillColor=#f5f5f5;strokeColor=#666666;" parent="1" source="4geezG6I5giaBuU09YtY-4" target="FB9GtuEAJczlA79pJL21-1" edge="1">
          <mxGeometry relative="1" as="geometry">
            <mxPoint x="1350" y="750" as="sourcePoint" />
            <mxPoint x="1230" y="690" as="targetPoint" />
          </mxGeometry>
        </mxCell>
        <mxCell id="1AnKh6Qnn9gDq6eOZiQQ-1" value="&lt;font color=&quot;#0066cc&quot; style=&quot;font-size: 15px;&quot;&gt;&lt;b&gt;Added pull text&lt;/b&gt;&lt;/font&gt;" style="text;html=1;strokeColor=none;fillColor=none;align=center;verticalAlign=middle;whiteSpace=wrap;rounded=0;" vertex="1" parent="1">
          <mxGeometry x="1480" y="645" width="60" height="30" as="geometry" />
        </mxCell>
        <mxCell id="1AnKh6Qnn9gDq6eOZiQQ-2" value="&lt;font color=&quot;#0066cc&quot; style=&quot;font-size: 15px;&quot;&gt;&lt;b&gt;Altra modificació de Pau&lt;/b&gt;&lt;/font&gt;" style="text;html=1;strokeColor=none;fillColor=none;align=center;verticalAlign=middle;whiteSpace=wrap;rounded=0;" vertex="1" parent="1">
          <mxGeometry x="1470" y="745" width="80" height="30" as="geometry" />
        </mxCell>
      </root>
    </mxGraphModel>
  </diagram>
</mxfile>
